G04 PROTEUS GERBER X2 FILE*
%TF.GenerationSoftware,Labcenter,Proteus,8.15-SP1-Build34318*%
%TF.CreationDate,2024-05-03T00:28:03+00:00*%
%TF.FileFunction,Soldermask,Top*%
%TF.FilePolarity,Negative*%
%TF.Part,Single*%
%TF.SameCoordinates,{7acd5411-dfaa-41ed-91d4-80792116efa7}*%
%FSLAX45Y45*%
%MOMM*%
G01*
%TA.AperFunction,Material*%
%ADD20C,3.302000*%
%AMPPAD013*
4,1,36,
-1.016000,1.143000,
1.016000,1.143000,
1.041970,1.140470,
1.065980,1.133200,
1.087580,1.121650,
1.106290,1.106290,
1.121650,1.087570,
1.133200,1.065980,
1.140470,1.041970,
1.143000,1.016000,
1.143000,-1.016000,
1.140470,-1.041970,
1.133200,-1.065980,
1.121650,-1.087570,
1.106290,-1.106290,
1.087580,-1.121650,
1.065980,-1.133200,
1.041970,-1.140470,
1.016000,-1.143000,
-1.016000,-1.143000,
-1.041970,-1.140470,
-1.065980,-1.133200,
-1.087580,-1.121650,
-1.106290,-1.106290,
-1.121650,-1.087570,
-1.133200,-1.065980,
-1.140470,-1.041970,
-1.143000,-1.016000,
-1.143000,1.016000,
-1.140470,1.041970,
-1.133200,1.065980,
-1.121650,1.087570,
-1.106290,1.106290,
-1.087580,1.121650,
-1.065980,1.133200,
-1.041970,1.140470,
-1.016000,1.143000,
0*%
%TA.AperFunction,Material*%
%ADD21PPAD013*%
%AMPPAD014*
4,1,36,
-0.635000,0.762000,
0.635000,0.762000,
0.660970,0.759470,
0.684980,0.752200,
0.706580,0.740650,
0.725290,0.725290,
0.740650,0.706570,
0.752200,0.684980,
0.759470,0.660970,
0.762000,0.635000,
0.762000,-0.635000,
0.759470,-0.660970,
0.752200,-0.684980,
0.740650,-0.706570,
0.725290,-0.725290,
0.706580,-0.740650,
0.684980,-0.752200,
0.660970,-0.759470,
0.635000,-0.762000,
-0.635000,-0.762000,
-0.660970,-0.759470,
-0.684980,-0.752200,
-0.706580,-0.740650,
-0.725290,-0.725290,
-0.740650,-0.706570,
-0.752200,-0.684980,
-0.759470,-0.660970,
-0.762000,-0.635000,
-0.762000,0.635000,
-0.759470,0.660970,
-0.752200,0.684980,
-0.740650,0.706570,
-0.725290,0.725290,
-0.706580,0.740650,
-0.684980,0.752200,
-0.660970,0.759470,
-0.635000,0.762000,
0*%
%TA.AperFunction,Material*%
%ADD22PPAD014*%
%ADD23C,1.524000*%
%TA.AperFunction,Material*%
%ADD24C,2.286000*%
%TA.AperFunction,Material*%
%ADD25C,2.032000*%
%TA.AperFunction,Material*%
%ADD26C,2.794000*%
%AMPPAD019*
4,1,36,
-0.762000,-0.635000,
-0.762000,0.635000,
-0.759470,0.660970,
-0.752200,0.684980,
-0.740650,0.706580,
-0.725290,0.725290,
-0.706570,0.740650,
-0.684980,0.752200,
-0.660970,0.759470,
-0.635000,0.762000,
0.635000,0.762000,
0.660970,0.759470,
0.684980,0.752200,
0.706570,0.740650,
0.725290,0.725290,
0.740650,0.706580,
0.752200,0.684980,
0.759470,0.660970,
0.762000,0.635000,
0.762000,-0.635000,
0.759470,-0.660970,
0.752200,-0.684980,
0.740650,-0.706580,
0.725290,-0.725290,
0.706570,-0.740650,
0.684980,-0.752200,
0.660970,-0.759470,
0.635000,-0.762000,
-0.635000,-0.762000,
-0.660970,-0.759470,
-0.684980,-0.752200,
-0.706570,-0.740650,
-0.725290,-0.725290,
-0.740650,-0.706580,
-0.752200,-0.684980,
-0.759470,-0.660970,
-0.762000,-0.635000,
0*%
%ADD27PPAD019*%
%TA.AperFunction,Profile*%
%ADD19C,0.101600*%
%TD.AperFunction*%
D20*
X+4000000Y+4250000D03*
X+4508000Y+4250000D03*
X+500000Y+4250000D03*
X+1008000Y+4250000D03*
X+1500000Y+750000D03*
X+992000Y+750000D03*
D21*
X+2246000Y+4123000D03*
X+2500000Y+4123000D03*
X+2754000Y+4123000D03*
D22*
X+1000000Y+2250000D03*
D23*
X+1254000Y+2250000D03*
X+1508000Y+2250000D03*
X+1508000Y+3012000D03*
X+1254000Y+3012000D03*
X+1000000Y+3012000D03*
D24*
X+250000Y+1611000D03*
D25*
X+1250000Y+3250000D03*
X+2266000Y+3250000D03*
X+500000Y+3381000D03*
X+500000Y+2365000D03*
X+4000000Y+3377000D03*
X+4000000Y+2361000D03*
X+4627000Y+3377000D03*
X+4627000Y+2361000D03*
D26*
X+4500000Y+1000000D03*
X+3992000Y+1508000D03*
X+4500000Y+1508000D03*
X+3992000Y+1000000D03*
D27*
X+3250000Y+2250000D03*
D23*
X+3250000Y+2504000D03*
X+2488000Y+2504000D03*
X+2488000Y+2250000D03*
D25*
X+3250000Y+750000D03*
X+3250000Y+1766000D03*
X+1500000Y+1500000D03*
X+2516000Y+1500000D03*
D24*
X+254000Y+1016000D03*
D19*
X+0Y+0D02*
X+5000000Y+0D01*
X+5000000Y+5000000D01*
X+0Y+5000000D01*
X+0Y+0D01*
M02*
