G04 PROTEUS GERBER X2 FILE*
%TF.GenerationSoftware,Labcenter,Proteus,8.15-SP1-Build34318*%
%TF.CreationDate,2024-05-03T00:28:03+00:00*%
%TF.FileFunction,Legend,Top*%
%TF.FilePolarity,Positive*%
%TF.Part,Single*%
%TF.SameCoordinates,{7acd5411-dfaa-41ed-91d4-80792116efa7}*%
%FSLAX45Y45*%
%MOMM*%
G01*
%TA.AperFunction,Profile*%
%ADD19C,0.101600*%
%TA.AperFunction,Material*%
%ADD70C,0.101600*%
%TA.AperFunction,NonMaterial*%
%ADD71C,0.101600*%
%TD.AperFunction*%
D19*
X+0Y+0D02*
X+5000000Y+0D01*
X+5000000Y+5000000D01*
X+0Y+5000000D01*
X+0Y+0D01*
D70*
X+3746000Y+4758000D02*
X+3746000Y+3742000D01*
X+4762000Y+4758000D02*
X+4762000Y+3742000D01*
X+3746000Y+3742000D02*
X+4762000Y+3742000D01*
X+3746000Y+4758000D02*
X+4762000Y+4758000D01*
X+4237300Y+4788480D02*
X+4237300Y+4839280D01*
X+4263970Y+4864680D01*
X+4290640Y+4864680D01*
X+4317310Y+4839280D01*
X+4317310Y+4788480D01*
X+4237300Y+4813880D02*
X+4317310Y+4813880D01*
X+4423990Y+4801180D02*
X+4410655Y+4788480D01*
X+4370650Y+4788480D01*
X+4343980Y+4813880D01*
X+4343980Y+4839280D01*
X+4370650Y+4864680D01*
X+4410655Y+4864680D01*
X+4423990Y+4851980D01*
X+4570675Y+4864680D02*
X+4624015Y+4864680D01*
X+4597345Y+4864680D02*
X+4597345Y+4788480D01*
X+4570675Y+4788480D02*
X+4624015Y+4788480D01*
X+4664020Y+4788480D02*
X+4664020Y+4864680D01*
X+4744030Y+4788480D01*
X+4744030Y+4864680D01*
X+246000Y+4758000D02*
X+246000Y+3742000D01*
X+1262000Y+4758000D02*
X+1262000Y+3742000D01*
X+246000Y+3742000D02*
X+1262000Y+3742000D01*
X+246000Y+4758000D02*
X+1262000Y+4758000D01*
X+317310Y+4801180D02*
X+303975Y+4788480D01*
X+263970Y+4788480D01*
X+237300Y+4813880D01*
X+237300Y+4839280D01*
X+263970Y+4864680D01*
X+303975Y+4864680D01*
X+317310Y+4851980D01*
X+343980Y+4788480D02*
X+343980Y+4839280D01*
X+370650Y+4864680D01*
X+397320Y+4864680D01*
X+423990Y+4839280D01*
X+423990Y+4788480D01*
X+343980Y+4813880D02*
X+423990Y+4813880D01*
X+450660Y+4788480D02*
X+450660Y+4864680D01*
X+517335Y+4864680D01*
X+530670Y+4851980D01*
X+530670Y+4839280D01*
X+517335Y+4826580D01*
X+450660Y+4826580D01*
X+517335Y+4826580D02*
X+530670Y+4813880D01*
X+530670Y+4788480D01*
X+610680Y+4813880D02*
X+637350Y+4813880D01*
X+637350Y+4788480D01*
X+584010Y+4788480D01*
X+557340Y+4813880D01*
X+557340Y+4839280D01*
X+584010Y+4864680D01*
X+624015Y+4864680D01*
X+637350Y+4851980D01*
X+664020Y+4788480D02*
X+664020Y+4839280D01*
X+690690Y+4864680D01*
X+717360Y+4864680D01*
X+744030Y+4839280D01*
X+744030Y+4788480D01*
X+664020Y+4813880D02*
X+744030Y+4813880D01*
X+1754000Y+242000D02*
X+1754000Y+1258000D01*
X+738000Y+242000D02*
X+738000Y+1258000D01*
X+1754000Y+1258000D02*
X+738000Y+1258000D01*
X+1754000Y+242000D02*
X+738000Y+242000D01*
X+1042800Y+142940D02*
X+1042800Y+203900D01*
X+1083440Y+203900D01*
X+1103760Y+183580D01*
X+1103760Y+163260D01*
X+1083440Y+142940D01*
X+1042800Y+142940D01*
X+1185040Y+153100D02*
X+1174880Y+142940D01*
X+1144400Y+142940D01*
X+1124080Y+163260D01*
X+1124080Y+183580D01*
X+1144400Y+203900D01*
X+1174880Y+203900D01*
X+1185040Y+193740D01*
X+1296800Y+203900D02*
X+1337440Y+203900D01*
X+1317120Y+203900D02*
X+1317120Y+142940D01*
X+1296800Y+142940D02*
X+1337440Y+142940D01*
X+1367920Y+142940D02*
X+1367920Y+203900D01*
X+1428880Y+142940D01*
X+1428880Y+203900D01*
X+2119000Y+3996000D02*
X+2881000Y+3996000D01*
X+2881000Y+4250000D01*
X+2119000Y+4250000D01*
X+2119000Y+3996000D01*
X+2119000Y+4250000D02*
X+2119000Y+4377000D01*
X+2881000Y+4377000D01*
X+2881000Y+4250000D01*
X+2119000Y+4250000D02*
X+2246000Y+4377000D01*
X+2246000Y+4250000D02*
X+2373000Y+4377000D01*
X+2373000Y+4250000D02*
X+2500000Y+4377000D01*
X+2500000Y+4250000D02*
X+2627000Y+4377000D01*
X+2627000Y+4250000D02*
X+2754000Y+4377000D01*
X+2754000Y+4250000D02*
X+2881000Y+4377000D01*
X+2245300Y+4614680D02*
X+2325310Y+4614680D01*
X+2285305Y+4614680D02*
X+2285305Y+4538480D01*
X+2351980Y+4538480D02*
X+2351980Y+4614680D01*
X+2418655Y+4614680D01*
X+2431990Y+4601980D01*
X+2431990Y+4589280D01*
X+2418655Y+4576580D01*
X+2351980Y+4576580D01*
X+2418655Y+4576580D02*
X+2431990Y+4563880D01*
X+2431990Y+4538480D01*
X+2471995Y+4614680D02*
X+2525335Y+4614680D01*
X+2498665Y+4614680D02*
X+2498665Y+4538480D01*
X+2471995Y+4538480D02*
X+2525335Y+4538480D01*
X+2565340Y+4538480D02*
X+2565340Y+4589280D01*
X+2592010Y+4614680D01*
X+2618680Y+4614680D01*
X+2645350Y+4589280D01*
X+2645350Y+4538480D01*
X+2565340Y+4563880D02*
X+2645350Y+4563880D01*
X+2752030Y+4551180D02*
X+2738695Y+4538480D01*
X+2698690Y+4538480D01*
X+2672020Y+4563880D01*
X+2672020Y+4589280D01*
X+2698690Y+4614680D01*
X+2738695Y+4614680D01*
X+2752030Y+4601980D01*
X+873000Y+2377000D02*
X+873000Y+2504000D01*
X+1000000Y+2631000D02*
X+997564Y+2656876D01*
X+990515Y+2680848D01*
X+979238Y+2702438D01*
X+964122Y+2721170D01*
X+945554Y+2736569D01*
X+923919Y+2748158D01*
X+899606Y+2755460D01*
X+873000Y+2758000D01*
X+1000000Y+2631000D02*
X+997564Y+2604394D01*
X+990515Y+2580081D01*
X+979238Y+2558446D01*
X+964122Y+2539878D01*
X+945554Y+2524762D01*
X+923919Y+2513485D01*
X+899606Y+2506436D01*
X+873000Y+2504000D01*
X+873000Y+2758000D02*
X+873000Y+2885000D01*
X+1635000Y+2377000D02*
X+1635000Y+2885000D01*
X+873000Y+2377000D02*
X+1635000Y+2377000D01*
X+873000Y+2885000D02*
X+1635000Y+2885000D01*
X+834900Y+2346520D02*
X+773940Y+2346520D01*
X+804420Y+2377000D01*
X+773940Y+2407480D01*
X+834900Y+2407480D01*
X+794260Y+2427800D02*
X+773940Y+2448120D01*
X+773940Y+2468440D01*
X+794260Y+2488760D01*
X+814580Y+2488760D01*
X+834900Y+2468440D01*
X+834900Y+2448120D01*
X+814580Y+2427800D01*
X+794260Y+2427800D01*
X+824740Y+2570040D02*
X+834900Y+2559880D01*
X+834900Y+2529400D01*
X+814580Y+2509080D01*
X+794260Y+2509080D01*
X+773940Y+2529400D01*
X+773940Y+2559880D01*
X+784100Y+2570040D01*
X+784100Y+2600520D02*
X+773940Y+2610680D01*
X+773940Y+2641160D01*
X+784100Y+2651320D01*
X+794260Y+2651320D01*
X+804420Y+2641160D01*
X+814580Y+2651320D01*
X+824740Y+2651320D01*
X+834900Y+2641160D01*
X+834900Y+2610680D01*
X+824740Y+2600520D01*
X+804420Y+2620840D02*
X+804420Y+2641160D01*
X+824740Y+2671640D02*
X+784100Y+2671640D01*
X+773940Y+2681800D01*
X+773940Y+2722440D01*
X+784100Y+2732600D01*
X+824740Y+2732600D01*
X+834900Y+2722440D01*
X+834900Y+2681800D01*
X+824740Y+2671640D01*
X+834900Y+2671640D02*
X+773940Y+2732600D01*
X+784100Y+2763080D02*
X+773940Y+2773240D01*
X+773940Y+2803720D01*
X+784100Y+2813880D01*
X+794260Y+2813880D01*
X+804420Y+2803720D01*
X+804420Y+2773240D01*
X+814580Y+2763080D01*
X+834900Y+2763080D01*
X+834900Y+2813880D01*
X+794260Y+2854520D02*
X+773940Y+2874840D01*
X+834900Y+2874840D01*
X+377000Y+1611000D02*
X+376573Y+1621409D01*
X+373101Y+1642228D01*
X+365845Y+1663047D01*
X+354017Y+1683866D01*
X+335920Y+1704524D01*
X+315101Y+1720045D01*
X+294282Y+1730030D01*
X+273463Y+1735814D01*
X+252644Y+1737972D01*
X+250000Y+1738000D01*
X+123000Y+1611000D02*
X+123427Y+1621409D01*
X+126899Y+1642228D01*
X+134155Y+1663047D01*
X+145983Y+1683866D01*
X+164080Y+1704524D01*
X+184899Y+1720045D01*
X+205718Y+1730030D01*
X+226537Y+1735814D01*
X+247356Y+1737972D01*
X+250000Y+1738000D01*
X+123000Y+1611000D02*
X+123427Y+1600591D01*
X+126899Y+1579772D01*
X+134155Y+1558953D01*
X+145983Y+1538134D01*
X+164080Y+1517476D01*
X+184899Y+1501955D01*
X+205718Y+1491970D01*
X+226537Y+1486186D01*
X+247356Y+1484028D01*
X+250000Y+1484000D01*
X+377000Y+1611000D02*
X+376573Y+1600591D01*
X+373101Y+1579772D01*
X+365845Y+1558953D01*
X+354017Y+1538134D01*
X+335920Y+1517476D01*
X+315101Y+1501955D01*
X+294282Y+1491970D01*
X+273463Y+1486186D01*
X+252644Y+1484028D01*
X+250000Y+1484000D01*
X+313500Y+1611000D02*
X+313283Y+1616247D01*
X+311518Y+1626742D01*
X+307826Y+1637237D01*
X+301798Y+1647732D01*
X+292576Y+1658112D01*
X+282081Y+1665800D01*
X+271586Y+1670718D01*
X+261091Y+1673524D01*
X+250596Y+1674497D01*
X+250000Y+1674500D01*
X+186500Y+1611000D02*
X+186717Y+1616247D01*
X+188482Y+1626742D01*
X+192174Y+1637237D01*
X+198202Y+1647732D01*
X+207424Y+1658112D01*
X+217919Y+1665800D01*
X+228414Y+1670718D01*
X+238909Y+1673524D01*
X+249404Y+1674497D01*
X+250000Y+1674500D01*
X+186500Y+1611000D02*
X+186717Y+1605753D01*
X+188482Y+1595258D01*
X+192174Y+1584763D01*
X+198202Y+1574268D01*
X+207424Y+1563888D01*
X+217919Y+1556200D01*
X+228414Y+1551282D01*
X+238909Y+1548476D01*
X+249404Y+1547503D01*
X+250000Y+1547500D01*
X+313500Y+1611000D02*
X+313283Y+1605753D01*
X+311518Y+1595258D01*
X+307826Y+1584763D01*
X+301798Y+1574268D01*
X+292576Y+1563888D01*
X+282081Y+1556200D01*
X+271586Y+1551282D01*
X+261091Y+1548476D01*
X+250596Y+1547503D01*
X+250000Y+1547500D01*
X+143320Y+1768480D02*
X+143320Y+1844680D01*
X+209995Y+1844680D01*
X+223330Y+1831980D01*
X+223330Y+1819280D01*
X+209995Y+1806580D01*
X+143320Y+1806580D01*
X+250000Y+1768480D02*
X+250000Y+1844680D01*
X+303340Y+1844680D01*
X+330010Y+1819280D01*
X+330010Y+1793880D01*
X+303340Y+1768480D01*
X+250000Y+1768480D01*
X+1377000Y+3250000D02*
X+1504000Y+3250000D01*
X+1504000Y+3186500D02*
X+2012000Y+3186500D01*
X+2012000Y+3313500D01*
X+1504000Y+3313500D01*
X+1504000Y+3186500D01*
X+2012000Y+3250000D02*
X+2139000Y+3250000D01*
X+1651320Y+3343980D02*
X+1651320Y+3420180D01*
X+1717995Y+3420180D01*
X+1731330Y+3407480D01*
X+1731330Y+3394780D01*
X+1717995Y+3382080D01*
X+1651320Y+3382080D01*
X+1717995Y+3382080D02*
X+1731330Y+3369380D01*
X+1731330Y+3343980D01*
X+1838010Y+3420180D02*
X+1771335Y+3420180D01*
X+1771335Y+3394780D01*
X+1824675Y+3394780D01*
X+1838010Y+3382080D01*
X+1838010Y+3356680D01*
X+1824675Y+3343980D01*
X+1784670Y+3343980D01*
X+1771335Y+3356680D01*
X+500000Y+3254000D02*
X+500000Y+3127000D01*
X+436500Y+2619000D02*
X+563500Y+2619000D01*
X+563500Y+3127000D01*
X+436500Y+3127000D01*
X+436500Y+2619000D01*
X+500000Y+2619000D02*
X+500000Y+2492000D01*
X+662560Y+2791720D02*
X+601600Y+2791720D01*
X+601600Y+2842520D01*
X+611760Y+2852680D01*
X+621920Y+2852680D01*
X+632080Y+2842520D01*
X+632080Y+2791720D01*
X+632080Y+2842520D02*
X+642240Y+2852680D01*
X+662560Y+2852680D01*
X+611760Y+2933960D02*
X+601600Y+2923800D01*
X+601600Y+2893320D01*
X+611760Y+2883160D01*
X+652400Y+2883160D01*
X+662560Y+2893320D01*
X+662560Y+2923800D01*
X+652400Y+2933960D01*
X+642240Y+2933960D01*
X+632080Y+2923800D01*
X+632080Y+2883160D01*
X+4000000Y+3250000D02*
X+4000000Y+3123000D01*
X+3936500Y+2615000D02*
X+4063500Y+2615000D01*
X+4063500Y+3123000D01*
X+3936500Y+3123000D01*
X+3936500Y+2615000D01*
X+4000000Y+2615000D02*
X+4000000Y+2488000D01*
X+3916180Y+2762320D02*
X+3839980Y+2762320D01*
X+3839980Y+2828995D01*
X+3852680Y+2842330D01*
X+3865380Y+2842330D01*
X+3878080Y+2828995D01*
X+3878080Y+2762320D01*
X+3878080Y+2828995D02*
X+3890780Y+2842330D01*
X+3916180Y+2842330D01*
X+3865380Y+2895670D02*
X+3839980Y+2922340D01*
X+3916180Y+2922340D01*
X+4627000Y+3250000D02*
X+4627000Y+3123000D01*
X+4563500Y+2615000D02*
X+4690500Y+2615000D01*
X+4690500Y+3123000D01*
X+4563500Y+3123000D01*
X+4563500Y+2615000D01*
X+4627000Y+2615000D02*
X+4627000Y+2488000D01*
X+4543180Y+2762320D02*
X+4466980Y+2762320D01*
X+4466980Y+2828995D01*
X+4479680Y+2842330D01*
X+4492380Y+2842330D01*
X+4505080Y+2828995D01*
X+4505080Y+2762320D01*
X+4505080Y+2828995D02*
X+4517780Y+2842330D01*
X+4543180Y+2842330D01*
X+4479680Y+2882335D02*
X+4466980Y+2895670D01*
X+4466980Y+2935675D01*
X+4479680Y+2949010D01*
X+4492380Y+2949010D01*
X+4505080Y+2935675D01*
X+4505080Y+2895670D01*
X+4517780Y+2882335D01*
X+4543180Y+2882335D01*
X+4543180Y+2949010D01*
X+4787020Y+1254000D02*
X+4785380Y+1296095D01*
X+4772074Y+1380287D01*
X+4744399Y+1464479D01*
X+4699731Y+1548671D01*
X+4632219Y+1632863D01*
X+4548063Y+1702844D01*
X+4463871Y+1749212D01*
X+4379679Y+1778245D01*
X+4295487Y+1792752D01*
X+4246000Y+1795020D01*
X+3704980Y+1254000D02*
X+3706620Y+1296095D01*
X+3719926Y+1380287D01*
X+3747601Y+1464479D01*
X+3792269Y+1548671D01*
X+3859781Y+1632863D01*
X+3943937Y+1702844D01*
X+4028129Y+1749212D01*
X+4112321Y+1778245D01*
X+4196513Y+1792752D01*
X+4246000Y+1795020D01*
X+3704980Y+1254000D02*
X+3706620Y+1211905D01*
X+3719926Y+1127713D01*
X+3747601Y+1043521D01*
X+3792269Y+959329D01*
X+3859781Y+875137D01*
X+3943937Y+805156D01*
X+4028129Y+758788D01*
X+4112321Y+729755D01*
X+4196513Y+715248D01*
X+4246000Y+712980D01*
X+4787020Y+1254000D02*
X+4785380Y+1211905D01*
X+4772074Y+1127713D01*
X+4744399Y+1043521D01*
X+4699731Y+959329D01*
X+4632219Y+875137D01*
X+4548063Y+805156D01*
X+4463871Y+758788D01*
X+4379679Y+729755D01*
X+4295487Y+715248D01*
X+4246000Y+712980D01*
X+4449200Y+771400D02*
X+4449200Y+873000D01*
X+4500000Y+822200D02*
X+4398400Y+822200D01*
X+3884240Y+613920D02*
X+3884240Y+674880D01*
X+3935040Y+674880D01*
X+3945200Y+664720D01*
X+3945200Y+654560D01*
X+3935040Y+644400D01*
X+3884240Y+644400D01*
X+3965520Y+674880D02*
X+4026480Y+674880D01*
X+3996000Y+674880D02*
X+3996000Y+613920D01*
X+4107760Y+613920D02*
X+4046800Y+613920D01*
X+4046800Y+674880D01*
X+4107760Y+674880D01*
X+4046800Y+644400D02*
X+4087440Y+644400D01*
X+4128080Y+613920D02*
X+4128080Y+674880D01*
X+4168720Y+674880D01*
X+4189040Y+654560D01*
X+4189040Y+634240D01*
X+4168720Y+613920D01*
X+4128080Y+613920D01*
X+4219520Y+674880D02*
X+4260160Y+674880D01*
X+4239840Y+674880D02*
X+4239840Y+613920D01*
X+4219520Y+613920D02*
X+4260160Y+613920D01*
X+4290640Y+654560D02*
X+4310960Y+674880D01*
X+4331280Y+674880D01*
X+4351600Y+654560D01*
X+4351600Y+634240D01*
X+4331280Y+613920D01*
X+4310960Y+613920D01*
X+4290640Y+634240D01*
X+4290640Y+654560D01*
X+4371920Y+613920D02*
X+4371920Y+674880D01*
X+4412560Y+674880D01*
X+4432880Y+654560D01*
X+4432880Y+634240D01*
X+4412560Y+613920D01*
X+4371920Y+613920D01*
X+4453200Y+654560D02*
X+4473520Y+674880D01*
X+4493840Y+674880D01*
X+4514160Y+654560D01*
X+4514160Y+634240D01*
X+4493840Y+613920D01*
X+4473520Y+613920D01*
X+4453200Y+634240D01*
X+4453200Y+654560D01*
X+4534480Y+624080D02*
X+4544640Y+613920D01*
X+4585280Y+613920D01*
X+4595440Y+624080D01*
X+4595440Y+634240D01*
X+4585280Y+644400D01*
X+4544640Y+644400D01*
X+4534480Y+654560D01*
X+4534480Y+664720D01*
X+4544640Y+674880D01*
X+4585280Y+674880D01*
X+4595440Y+664720D01*
X+2742000Y+2123000D02*
X+2615000Y+2123000D01*
X+2615000Y+2631000D01*
X+3123000Y+2631000D01*
X+3123000Y+2123000D01*
X+2996000Y+2123000D01*
X+2869000Y+2250000D02*
X+2843124Y+2247564D01*
X+2819152Y+2240515D01*
X+2797562Y+2229238D01*
X+2778830Y+2214122D01*
X+2763431Y+2195554D01*
X+2751842Y+2173919D01*
X+2744540Y+2149606D01*
X+2742000Y+2123000D01*
X+2869000Y+2250000D02*
X+2895606Y+2247564D01*
X+2919919Y+2240515D01*
X+2941554Y+2229238D01*
X+2960122Y+2214122D01*
X+2975238Y+2195554D01*
X+2986515Y+2173919D01*
X+2993564Y+2149606D01*
X+2996000Y+2123000D01*
X+2665800Y+2023940D02*
X+2665800Y+2084900D01*
X+2716600Y+2084900D01*
X+2726760Y+2074740D01*
X+2726760Y+2064580D01*
X+2716600Y+2054420D01*
X+2665800Y+2054420D01*
X+2808040Y+2034100D02*
X+2797880Y+2023940D01*
X+2767400Y+2023940D01*
X+2747080Y+2044260D01*
X+2747080Y+2064580D01*
X+2767400Y+2084900D01*
X+2797880Y+2084900D01*
X+2808040Y+2074740D01*
X+2848680Y+2054420D02*
X+2838520Y+2064580D01*
X+2838520Y+2074740D01*
X+2848680Y+2084900D01*
X+2879160Y+2084900D01*
X+2889320Y+2074740D01*
X+2889320Y+2064580D01*
X+2879160Y+2054420D01*
X+2848680Y+2054420D01*
X+2838520Y+2044260D01*
X+2838520Y+2034100D01*
X+2848680Y+2023940D01*
X+2879160Y+2023940D01*
X+2889320Y+2034100D01*
X+2889320Y+2044260D01*
X+2879160Y+2054420D01*
X+2929960Y+2064580D02*
X+2950280Y+2084900D01*
X+2950280Y+2023940D01*
X+3001080Y+2084900D02*
X+3051880Y+2084900D01*
X+3051880Y+2074740D01*
X+3001080Y+2023940D01*
X+3250000Y+877000D02*
X+3250000Y+1004000D01*
X+3186500Y+1004000D02*
X+3313500Y+1004000D01*
X+3313500Y+1512000D01*
X+3186500Y+1512000D01*
X+3186500Y+1004000D01*
X+3250000Y+1512000D02*
X+3250000Y+1639000D01*
X+3156020Y+1024320D02*
X+3079820Y+1024320D01*
X+3079820Y+1090995D01*
X+3092520Y+1104330D01*
X+3105220Y+1104330D01*
X+3117920Y+1090995D01*
X+3117920Y+1024320D01*
X+3117920Y+1090995D02*
X+3130620Y+1104330D01*
X+3156020Y+1104330D01*
X+3092520Y+1144335D02*
X+3079820Y+1157670D01*
X+3079820Y+1197675D01*
X+3092520Y+1211010D01*
X+3105220Y+1211010D01*
X+3117920Y+1197675D01*
X+3130620Y+1211010D01*
X+3143320Y+1211010D01*
X+3156020Y+1197675D01*
X+3156020Y+1157670D01*
X+3143320Y+1144335D01*
X+3117920Y+1171005D02*
X+3117920Y+1197675D01*
X+1627000Y+1500000D02*
X+1754000Y+1500000D01*
X+1754000Y+1436500D02*
X+2262000Y+1436500D01*
X+2262000Y+1563500D01*
X+1754000Y+1563500D01*
X+1754000Y+1436500D01*
X+2262000Y+1500000D02*
X+2389000Y+1500000D01*
X+1901320Y+1593980D02*
X+1901320Y+1670180D01*
X+1967995Y+1670180D01*
X+1981330Y+1657480D01*
X+1981330Y+1644780D01*
X+1967995Y+1632080D01*
X+1901320Y+1632080D01*
X+1967995Y+1632080D02*
X+1981330Y+1619380D01*
X+1981330Y+1593980D01*
X+2088010Y+1619380D02*
X+2008000Y+1619380D01*
X+2061340Y+1670180D01*
X+2061340Y+1593980D01*
X+381000Y+1016000D02*
X+380573Y+1026409D01*
X+377101Y+1047228D01*
X+369845Y+1068047D01*
X+358017Y+1088866D01*
X+339920Y+1109524D01*
X+319101Y+1125045D01*
X+298282Y+1135030D01*
X+277463Y+1140814D01*
X+256644Y+1142972D01*
X+254000Y+1143000D01*
X+127000Y+1016000D02*
X+127427Y+1026409D01*
X+130899Y+1047228D01*
X+138155Y+1068047D01*
X+149983Y+1088866D01*
X+168080Y+1109524D01*
X+188899Y+1125045D01*
X+209718Y+1135030D01*
X+230537Y+1140814D01*
X+251356Y+1142972D01*
X+254000Y+1143000D01*
X+127000Y+1016000D02*
X+127427Y+1005591D01*
X+130899Y+984772D01*
X+138155Y+963953D01*
X+149983Y+943134D01*
X+168080Y+922476D01*
X+188899Y+906955D01*
X+209718Y+896970D01*
X+230537Y+891186D01*
X+251356Y+889028D01*
X+254000Y+889000D01*
X+381000Y+1016000D02*
X+380573Y+1005591D01*
X+377101Y+984772D01*
X+369845Y+963953D01*
X+358017Y+943134D01*
X+339920Y+922476D01*
X+319101Y+906955D01*
X+298282Y+896970D01*
X+277463Y+891186D01*
X+256644Y+889028D01*
X+254000Y+889000D01*
X+317500Y+1016000D02*
X+317283Y+1021247D01*
X+315518Y+1031742D01*
X+311826Y+1042237D01*
X+305798Y+1052732D01*
X+296576Y+1063112D01*
X+286081Y+1070800D01*
X+275586Y+1075718D01*
X+265091Y+1078524D01*
X+254596Y+1079497D01*
X+254000Y+1079500D01*
X+190500Y+1016000D02*
X+190717Y+1021247D01*
X+192482Y+1031742D01*
X+196174Y+1042237D01*
X+202202Y+1052732D01*
X+211424Y+1063112D01*
X+221919Y+1070800D01*
X+232414Y+1075718D01*
X+242909Y+1078524D01*
X+253404Y+1079497D01*
X+254000Y+1079500D01*
X+190500Y+1016000D02*
X+190717Y+1010753D01*
X+192482Y+1000258D01*
X+196174Y+989763D01*
X+202202Y+979268D01*
X+211424Y+968888D01*
X+221919Y+961200D01*
X+232414Y+956282D01*
X+242909Y+953476D01*
X+253404Y+952503D01*
X+254000Y+952500D01*
X+317500Y+1016000D02*
X+317283Y+1010753D01*
X+315518Y+1000258D01*
X+311826Y+989763D01*
X+305798Y+979268D01*
X+296576Y+968888D01*
X+286081Y+961200D01*
X+275586Y+956282D01*
X+265091Y+953476D01*
X+254596Y+952503D01*
X+254000Y+952500D01*
X+93980Y+1173480D02*
X+93980Y+1249680D01*
X+160655Y+1249680D01*
X+173990Y+1236980D01*
X+173990Y+1224280D01*
X+160655Y+1211580D01*
X+93980Y+1211580D01*
X+200660Y+1249680D02*
X+280670Y+1249680D01*
X+200660Y+1173480D01*
X+280670Y+1173480D01*
X+387350Y+1186180D02*
X+374015Y+1173480D01*
X+334010Y+1173480D01*
X+307340Y+1198880D01*
X+307340Y+1224280D01*
X+334010Y+1249680D01*
X+374015Y+1249680D01*
X+387350Y+1236980D01*
D71*
X+2250000Y+128080D02*
X+2250000Y+219520D01*
X+2297625Y+173800D01*
X+2345250Y+219520D01*
X+2345250Y+128080D01*
X+2377000Y+189040D02*
X+2408750Y+219520D01*
X+2440500Y+219520D01*
X+2472250Y+189040D01*
X+2472250Y+158560D01*
X+2440500Y+128080D01*
X+2408750Y+128080D01*
X+2377000Y+158560D01*
X+2377000Y+189040D01*
X+2504000Y+128080D02*
X+2504000Y+219520D01*
X+2567500Y+219520D01*
X+2599250Y+189040D01*
X+2599250Y+158560D01*
X+2567500Y+128080D01*
X+2504000Y+128080D01*
X+2631000Y+219520D02*
X+2631000Y+143320D01*
X+2646875Y+128080D01*
X+2710375Y+128080D01*
X+2726250Y+143320D01*
X+2726250Y+219520D01*
X+2758000Y+219520D02*
X+2758000Y+128080D01*
X+2853250Y+128080D01*
X+2885000Y+189040D02*
X+2916750Y+219520D01*
X+2948500Y+219520D01*
X+2980250Y+189040D01*
X+2980250Y+158560D01*
X+2948500Y+128080D01*
X+2916750Y+128080D01*
X+2885000Y+158560D01*
X+2885000Y+189040D01*
X+3139000Y+128080D02*
X+3139000Y+219520D01*
X+3202500Y+219520D01*
X+3234250Y+189040D01*
X+3234250Y+158560D01*
X+3202500Y+128080D01*
X+3139000Y+128080D01*
X+3281875Y+219520D02*
X+3345375Y+219520D01*
X+3313625Y+219520D02*
X+3313625Y+128080D01*
X+3281875Y+128080D02*
X+3345375Y+128080D01*
X+3393000Y+128080D02*
X+3393000Y+219520D01*
X+3440625Y+173800D01*
X+3488250Y+219520D01*
X+3488250Y+128080D01*
X+3520000Y+128080D02*
X+3520000Y+219520D01*
X+3567625Y+173800D01*
X+3615250Y+219520D01*
X+3615250Y+128080D01*
X+3742250Y+128080D02*
X+3647000Y+128080D01*
X+3647000Y+219520D01*
X+3742250Y+219520D01*
X+3647000Y+173800D02*
X+3710500Y+173800D01*
X+3774000Y+128080D02*
X+3774000Y+219520D01*
X+3853375Y+219520D01*
X+3869250Y+204280D01*
X+3869250Y+189040D01*
X+3853375Y+173800D01*
X+3774000Y+173800D01*
X+3853375Y+173800D02*
X+3869250Y+158560D01*
X+3869250Y+128080D01*
X+4028000Y+128080D02*
X+4028000Y+219520D01*
X+4091500Y+219520D01*
X+4123250Y+189040D01*
X+4123250Y+158560D01*
X+4091500Y+128080D01*
X+4028000Y+128080D01*
X+4250250Y+128080D02*
X+4155000Y+128080D01*
X+4155000Y+219520D01*
X+4250250Y+219520D01*
X+4155000Y+173800D02*
X+4218500Y+173800D01*
X+4409000Y+128080D02*
X+4409000Y+189040D01*
X+4440750Y+219520D01*
X+4472500Y+219520D01*
X+4504250Y+189040D01*
X+4504250Y+128080D01*
X+4409000Y+158560D02*
X+4504250Y+158560D01*
X+4631250Y+143320D02*
X+4615375Y+128080D01*
X+4567750Y+128080D01*
X+4536000Y+158560D01*
X+4536000Y+189040D01*
X+4567750Y+219520D01*
X+4615375Y+219520D01*
X+4631250Y+204280D01*
X+2246000Y+261240D02*
X+2246000Y+345060D01*
X+2341250Y+345060D01*
X+2246000Y+303150D02*
X+2309500Y+303150D01*
X+2388875Y+345060D02*
X+2452375Y+345060D01*
X+2420625Y+345060D02*
X+2420625Y+261240D01*
X+2388875Y+261240D02*
X+2452375Y+261240D01*
X+2500000Y+261240D02*
X+2500000Y+345060D01*
X+2547625Y+303150D01*
X+2595250Y+345060D01*
X+2595250Y+261240D01*
X+2722250Y+261240D02*
X+2627000Y+261240D01*
X+2627000Y+345060D01*
X+2722250Y+345060D01*
X+2627000Y+303150D02*
X+2690500Y+303150D01*
X+2976250Y+289180D02*
X+2881000Y+289180D01*
X+2944500Y+345060D01*
X+2944500Y+261240D01*
X+3103250Y+275210D02*
X+3087375Y+261240D01*
X+3039750Y+261240D01*
X+3008000Y+289180D01*
X+3008000Y+317120D01*
X+3039750Y+345060D01*
X+3087375Y+345060D01*
X+3103250Y+331090D01*
X+2262000Y+4443040D02*
X+2262000Y+4488760D01*
X+2293750Y+4488760D01*
X+2300100Y+4481140D01*
X+2300100Y+4473520D01*
X+2293750Y+4465900D01*
X+2300100Y+4458280D01*
X+2300100Y+4450660D01*
X+2293750Y+4443040D01*
X+2262000Y+4443040D01*
X+2262000Y+4465900D02*
X+2293750Y+4465900D01*
X+2312800Y+4488760D02*
X+2350900Y+4488760D01*
X+2331850Y+4488760D02*
X+2331850Y+4443040D01*
X+2363600Y+4443040D02*
X+2363600Y+4473520D01*
X+2376300Y+4488760D01*
X+2389000Y+4488760D01*
X+2401700Y+4473520D01*
X+2401700Y+4443040D01*
X+2363600Y+4458280D02*
X+2401700Y+4458280D01*
X+2414400Y+4450660D02*
X+2414400Y+4481140D01*
X+2420750Y+4488760D01*
X+2446150Y+4488760D01*
X+2452500Y+4481140D01*
X+2452500Y+4450660D01*
X+2446150Y+4443040D01*
X+2420750Y+4443040D01*
X+2414400Y+4450660D01*
X+2414400Y+4443040D02*
X+2452500Y+4488760D01*
X+2477900Y+4465900D02*
X+2471550Y+4473520D01*
X+2471550Y+4481140D01*
X+2477900Y+4488760D01*
X+2496950Y+4488760D01*
X+2503300Y+4481140D01*
X+2503300Y+4473520D01*
X+2496950Y+4465900D01*
X+2477900Y+4465900D01*
X+2471550Y+4458280D01*
X+2471550Y+4450660D01*
X+2477900Y+4443040D01*
X+2496950Y+4443040D01*
X+2503300Y+4450660D01*
X+2503300Y+4458280D01*
X+2496950Y+4465900D01*
X+2522350Y+4465900D02*
X+2554100Y+4465900D01*
X+2604900Y+4481140D02*
X+2598550Y+4488760D01*
X+2579500Y+4488760D01*
X+2573150Y+4481140D01*
X+2573150Y+4450660D01*
X+2579500Y+4443040D01*
X+2598550Y+4443040D01*
X+2604900Y+4450660D01*
X+2604900Y+4458280D01*
X+2598550Y+4465900D01*
X+2573150Y+4465900D01*
X+2617600Y+4450660D02*
X+2617600Y+4481140D01*
X+2623950Y+4488760D01*
X+2649350Y+4488760D01*
X+2655700Y+4481140D01*
X+2655700Y+4450660D01*
X+2649350Y+4443040D01*
X+2623950Y+4443040D01*
X+2617600Y+4450660D01*
X+2617600Y+4443040D02*
X+2655700Y+4488760D01*
X+2668400Y+4450660D02*
X+2668400Y+4481140D01*
X+2674750Y+4488760D01*
X+2700150Y+4488760D01*
X+2706500Y+4481140D01*
X+2706500Y+4450660D01*
X+2700150Y+4443040D01*
X+2674750Y+4443040D01*
X+2668400Y+4450660D01*
X+2668400Y+4443040D02*
X+2706500Y+4488760D01*
X+2719200Y+4443040D02*
X+2719200Y+4488760D01*
X+2750950Y+4488760D01*
X+2757300Y+4481140D01*
X+2757300Y+4473520D01*
X+2750950Y+4465900D01*
X+2757300Y+4458280D01*
X+2757300Y+4450660D01*
X+2750950Y+4443040D01*
X+2719200Y+4443040D01*
X+2719200Y+4465900D02*
X+2750950Y+4465900D01*
X+3807150Y+3181800D02*
X+3750000Y+3181800D01*
X+3788100Y+3232600D01*
X+3788100Y+3156400D01*
X+3835725Y+3232600D02*
X+3883350Y+3232600D01*
X+3883350Y+3219900D01*
X+3835725Y+3156400D01*
X+3902400Y+3232600D02*
X+3902400Y+3156400D01*
X+3959550Y+3232600D02*
X+3930975Y+3194500D01*
X+3959550Y+3156400D01*
X+3902400Y+3194500D02*
X+3930975Y+3194500D01*
X+4426150Y+3185800D02*
X+4369000Y+3185800D01*
X+4407100Y+3236600D01*
X+4407100Y+3160400D01*
X+4454725Y+3236600D02*
X+4502350Y+3236600D01*
X+4502350Y+3223900D01*
X+4454725Y+3160400D01*
X+4521400Y+3236600D02*
X+4521400Y+3160400D01*
X+4578550Y+3236600D02*
X+4549975Y+3198500D01*
X+4578550Y+3160400D01*
X+4521400Y+3198500D02*
X+4549975Y+3198500D01*
X+2540000Y+2763520D02*
X+2552700Y+2778760D01*
X+2565400Y+2778760D01*
X+2578100Y+2763520D01*
X+2578100Y+2748280D01*
X+2565400Y+2733040D01*
X+2552700Y+2733040D01*
X+2540000Y+2748280D01*
X+2540000Y+2763520D01*
X+2590800Y+2733040D02*
X+2590800Y+2778760D01*
X+2622550Y+2778760D01*
X+2628900Y+2771140D01*
X+2628900Y+2763520D01*
X+2622550Y+2755900D01*
X+2590800Y+2755900D01*
X+2641600Y+2778760D02*
X+2679700Y+2778760D01*
X+2660650Y+2778760D02*
X+2660650Y+2733040D01*
X+2692400Y+2763520D02*
X+2705100Y+2778760D01*
X+2717800Y+2778760D01*
X+2730500Y+2763520D01*
X+2730500Y+2748280D01*
X+2717800Y+2733040D01*
X+2705100Y+2733040D01*
X+2692400Y+2748280D01*
X+2692400Y+2763520D01*
X+2743200Y+2733040D02*
X+2743200Y+2763520D01*
X+2755900Y+2778760D01*
X+2768600Y+2778760D01*
X+2781300Y+2763520D01*
X+2781300Y+2733040D01*
X+2743200Y+2748280D02*
X+2781300Y+2748280D01*
X+2832100Y+2740660D02*
X+2825750Y+2733040D01*
X+2806700Y+2733040D01*
X+2794000Y+2748280D01*
X+2794000Y+2763520D01*
X+2806700Y+2778760D01*
X+2825750Y+2778760D01*
X+2832100Y+2771140D01*
X+2844800Y+2763520D02*
X+2857500Y+2778760D01*
X+2870200Y+2778760D01*
X+2882900Y+2763520D01*
X+2882900Y+2748280D01*
X+2870200Y+2733040D01*
X+2857500Y+2733040D01*
X+2844800Y+2748280D01*
X+2844800Y+2763520D01*
X+2895600Y+2733040D02*
X+2895600Y+2778760D01*
X+2927350Y+2778760D01*
X+2933700Y+2771140D01*
X+2933700Y+2763520D01*
X+2927350Y+2755900D01*
X+2895600Y+2755900D01*
X+2946400Y+2778760D02*
X+2946400Y+2733040D01*
X+2984500Y+2733040D01*
X+2997200Y+2733040D02*
X+2997200Y+2763520D01*
X+3009900Y+2778760D01*
X+3022600Y+2778760D01*
X+3035300Y+2763520D01*
X+3035300Y+2733040D01*
X+2997200Y+2748280D02*
X+3035300Y+2748280D01*
X+3048000Y+2733040D02*
X+3048000Y+2778760D01*
X+3073400Y+2778760D01*
X+3086100Y+2763520D01*
X+3086100Y+2748280D01*
X+3073400Y+2733040D01*
X+3048000Y+2733040D01*
X+3098800Y+2763520D02*
X+3111500Y+2778760D01*
X+3124200Y+2778760D01*
X+3136900Y+2763520D01*
X+3136900Y+2748280D01*
X+3124200Y+2733040D01*
X+3111500Y+2733040D01*
X+3098800Y+2748280D01*
X+3098800Y+2763520D01*
X+3149600Y+2733040D02*
X+3149600Y+2778760D01*
X+3181350Y+2778760D01*
X+3187700Y+2771140D01*
X+3187700Y+2763520D01*
X+3181350Y+2755900D01*
X+3149600Y+2755900D01*
X+3181350Y+2755900D02*
X+3187700Y+2748280D01*
X+3187700Y+2733040D01*
X+3393320Y+1053150D02*
X+3393320Y+1005525D01*
X+3413640Y+1005525D01*
X+3413640Y+1043625D01*
X+3423800Y+1053150D01*
X+3444120Y+1053150D01*
X+3454280Y+1043625D01*
X+3454280Y+1015050D01*
X+3444120Y+1005525D01*
X+3444120Y+1100775D02*
X+3444120Y+1110300D01*
X+3454280Y+1110300D01*
X+3454280Y+1100775D01*
X+3444120Y+1100775D01*
X+3403480Y+1205550D02*
X+3393320Y+1196025D01*
X+3393320Y+1167450D01*
X+3403480Y+1157925D01*
X+3444120Y+1157925D01*
X+3454280Y+1167450D01*
X+3454280Y+1196025D01*
X+3444120Y+1205550D01*
X+3433960Y+1205550D01*
X+3423800Y+1196025D01*
X+3423800Y+1157925D01*
X+3393320Y+1224600D02*
X+3454280Y+1224600D01*
X+3393320Y+1281750D02*
X+3423800Y+1253175D01*
X+3454280Y+1281750D01*
X+3423800Y+1224600D02*
X+3423800Y+1253175D01*
X+800100Y+81280D02*
X+819150Y+81280D01*
X+819150Y+66040D01*
X+781050Y+66040D01*
X+762000Y+81280D01*
X+762000Y+96520D01*
X+781050Y+111760D01*
X+809625Y+111760D01*
X+819150Y+104140D01*
X+838200Y+66040D02*
X+838200Y+111760D01*
X+895350Y+66040D01*
X+895350Y+111760D01*
X+914400Y+66040D02*
X+914400Y+111760D01*
X+952500Y+111760D01*
X+971550Y+96520D01*
X+971550Y+81280D01*
X+952500Y+66040D01*
X+914400Y+66040D01*
X+1524000Y+111760D02*
X+1524000Y+88900D01*
X+1552575Y+66040D01*
X+1581150Y+88900D01*
X+1581150Y+111760D01*
X+1609725Y+111760D02*
X+1647825Y+111760D01*
X+1628775Y+111760D02*
X+1628775Y+66040D01*
X+1609725Y+66040D02*
X+1647825Y+66040D01*
X+1676400Y+66040D02*
X+1676400Y+111760D01*
X+1733550Y+66040D01*
X+1733550Y+111760D01*
X+1924050Y+1356360D02*
X+1943100Y+1376680D01*
X+1943100Y+1315720D01*
X+1981200Y+1325880D02*
X+1981200Y+1366520D01*
X+1990725Y+1376680D01*
X+2028825Y+1376680D01*
X+2038350Y+1366520D01*
X+2038350Y+1325880D01*
X+2028825Y+1315720D01*
X+1990725Y+1315720D01*
X+1981200Y+1325880D01*
X+1981200Y+1315720D02*
X+2038350Y+1376680D01*
X+2057400Y+1325880D02*
X+2057400Y+1366520D01*
X+2066925Y+1376680D01*
X+2105025Y+1376680D01*
X+2114550Y+1366520D01*
X+2114550Y+1325880D01*
X+2105025Y+1315720D01*
X+2066925Y+1315720D01*
X+2057400Y+1325880D01*
X+2057400Y+1315720D02*
X+2114550Y+1376680D01*
X+2133600Y+1376680D02*
X+2133600Y+1315720D01*
X+2190750Y+1376680D02*
X+2162175Y+1346200D01*
X+2190750Y+1315720D01*
X+2133600Y+1346200D02*
X+2162175Y+1346200D01*
X+284480Y+2803525D02*
X+274320Y+2813050D01*
X+274320Y+2841625D01*
X+284480Y+2851150D01*
X+294640Y+2851150D01*
X+304800Y+2841625D01*
X+314960Y+2851150D01*
X+325120Y+2851150D01*
X+335280Y+2841625D01*
X+335280Y+2813050D01*
X+325120Y+2803525D01*
X+304800Y+2822575D02*
X+304800Y+2841625D01*
X+284480Y+2879725D02*
X+274320Y+2889250D01*
X+274320Y+2917825D01*
X+284480Y+2927350D01*
X+294640Y+2927350D01*
X+304800Y+2917825D01*
X+314960Y+2927350D01*
X+325120Y+2927350D01*
X+335280Y+2917825D01*
X+335280Y+2889250D01*
X+325120Y+2879725D01*
X+304800Y+2898775D02*
X+304800Y+2917825D01*
X+325120Y+2946400D02*
X+284480Y+2946400D01*
X+274320Y+2955925D01*
X+274320Y+2994025D01*
X+284480Y+3003550D01*
X+325120Y+3003550D01*
X+335280Y+2994025D01*
X+335280Y+2955925D01*
X+325120Y+2946400D01*
X+335280Y+2946400D02*
X+274320Y+3003550D01*
X+127000Y+4109720D02*
X+127000Y+4170680D01*
X+184150Y+4170680D01*
X+127000Y+4140200D02*
X+165100Y+4140200D01*
X+1397000Y+4109720D02*
X+1397000Y+4170680D01*
X+1454150Y+4109720D01*
X+1454150Y+4170680D01*
X+3556000Y+4109720D02*
X+3556000Y+4170680D01*
X+3613150Y+4170680D01*
X+3556000Y+4140200D02*
X+3594100Y+4140200D01*
X+4826000Y+4109720D02*
X+4826000Y+4170680D01*
X+4883150Y+4109720D01*
X+4883150Y+4170680D01*
X+1660525Y+3144520D02*
X+1670050Y+3154680D01*
X+1698625Y+3154680D01*
X+1708150Y+3144520D01*
X+1708150Y+3134360D01*
X+1698625Y+3124200D01*
X+1670050Y+3124200D01*
X+1660525Y+3114040D01*
X+1660525Y+3093720D01*
X+1708150Y+3093720D01*
X+1736725Y+3144520D02*
X+1746250Y+3154680D01*
X+1774825Y+3154680D01*
X+1784350Y+3144520D01*
X+1784350Y+3134360D01*
X+1774825Y+3124200D01*
X+1746250Y+3124200D01*
X+1736725Y+3114040D01*
X+1736725Y+3093720D01*
X+1784350Y+3093720D01*
X+1803400Y+3103880D02*
X+1803400Y+3144520D01*
X+1812925Y+3154680D01*
X+1851025Y+3154680D01*
X+1860550Y+3144520D01*
X+1860550Y+3103880D01*
X+1851025Y+3093720D01*
X+1812925Y+3093720D01*
X+1803400Y+3103880D01*
X+1803400Y+3093720D02*
X+1860550Y+3154680D01*
X+4076700Y+1874520D02*
X+4089400Y+1884680D01*
X+4127500Y+1884680D01*
X+4140200Y+1874520D01*
X+4140200Y+1864360D01*
X+4127500Y+1854200D01*
X+4089400Y+1854200D01*
X+4076700Y+1844040D01*
X+4076700Y+1823720D01*
X+4140200Y+1823720D01*
X+4165600Y+1884680D02*
X+4165600Y+1823720D01*
X+4203700Y+1854200D01*
X+4241800Y+1823720D01*
X+4241800Y+1884680D01*
X+4292600Y+1864360D02*
X+4318000Y+1884680D01*
X+4318000Y+1823720D01*
X+4368800Y+1833880D02*
X+4368800Y+1874520D01*
X+4381500Y+1884680D01*
X+4432300Y+1884680D01*
X+4445000Y+1874520D01*
X+4445000Y+1833880D01*
X+4432300Y+1823720D01*
X+4381500Y+1823720D01*
X+4368800Y+1833880D01*
X+4368800Y+1823720D02*
X+4445000Y+1884680D01*
X+1681480Y+2272471D02*
X+1666240Y+2285171D01*
X+1666240Y+2297871D01*
X+1681480Y+2310571D01*
X+1696720Y+2310571D01*
X+1711960Y+2297871D01*
X+1711960Y+2285171D01*
X+1696720Y+2272471D01*
X+1681480Y+2272471D01*
X+1711960Y+2323271D02*
X+1666240Y+2323271D01*
X+1666240Y+2355021D01*
X+1673860Y+2361371D01*
X+1681480Y+2361371D01*
X+1689100Y+2355021D01*
X+1689100Y+2323271D01*
X+1666240Y+2374071D02*
X+1666240Y+2412171D01*
X+1666240Y+2393121D02*
X+1711960Y+2393121D01*
X+1681480Y+2424871D02*
X+1666240Y+2437571D01*
X+1666240Y+2450271D01*
X+1681480Y+2462971D01*
X+1696720Y+2462971D01*
X+1711960Y+2450271D01*
X+1711960Y+2437571D01*
X+1696720Y+2424871D01*
X+1681480Y+2424871D01*
X+1711960Y+2475671D02*
X+1681480Y+2475671D01*
X+1666240Y+2488371D01*
X+1666240Y+2501071D01*
X+1681480Y+2513771D01*
X+1711960Y+2513771D01*
X+1696720Y+2475671D02*
X+1696720Y+2513771D01*
X+1704340Y+2564571D02*
X+1711960Y+2558221D01*
X+1711960Y+2539171D01*
X+1696720Y+2526471D01*
X+1681480Y+2526471D01*
X+1666240Y+2539171D01*
X+1666240Y+2558221D01*
X+1673860Y+2564571D01*
X+1681480Y+2577271D02*
X+1666240Y+2589971D01*
X+1666240Y+2602671D01*
X+1681480Y+2615371D01*
X+1696720Y+2615371D01*
X+1711960Y+2602671D01*
X+1711960Y+2589971D01*
X+1696720Y+2577271D01*
X+1681480Y+2577271D01*
X+1711960Y+2628071D02*
X+1666240Y+2628071D01*
X+1666240Y+2659821D01*
X+1673860Y+2666171D01*
X+1681480Y+2666171D01*
X+1689100Y+2659821D01*
X+1689100Y+2628071D01*
X+1666240Y+2678871D02*
X+1711960Y+2678871D01*
X+1711960Y+2716971D01*
X+1711960Y+2729671D02*
X+1681480Y+2729671D01*
X+1666240Y+2742371D01*
X+1666240Y+2755071D01*
X+1681480Y+2767771D01*
X+1711960Y+2767771D01*
X+1696720Y+2729671D02*
X+1696720Y+2767771D01*
X+1711960Y+2780471D02*
X+1666240Y+2780471D01*
X+1666240Y+2805871D01*
X+1681480Y+2818571D01*
X+1696720Y+2818571D01*
X+1711960Y+2805871D01*
X+1711960Y+2780471D01*
X+1681480Y+2831271D02*
X+1666240Y+2843971D01*
X+1666240Y+2856671D01*
X+1681480Y+2869371D01*
X+1696720Y+2869371D01*
X+1711960Y+2856671D01*
X+1711960Y+2843971D01*
X+1696720Y+2831271D01*
X+1681480Y+2831271D01*
X+1711960Y+2882071D02*
X+1666240Y+2882071D01*
X+1666240Y+2913821D01*
X+1673860Y+2920171D01*
X+1681480Y+2920171D01*
X+1689100Y+2913821D01*
X+1689100Y+2882071D01*
X+1689100Y+2913821D02*
X+1696720Y+2920171D01*
X+1711960Y+2920171D01*
X+3689350Y+1485900D02*
X+3721100Y+1485900D01*
X+4826000Y+1463040D02*
X+4826000Y+1493520D01*
X+4838700Y+1508760D01*
X+4851400Y+1508760D01*
X+4864100Y+1493520D01*
X+4864100Y+1463040D01*
X+4826000Y+1478280D02*
X+4864100Y+1478280D01*
X+4914900Y+1470660D02*
X+4908550Y+1463040D01*
X+4889500Y+1463040D01*
X+4876800Y+1478280D01*
X+4876800Y+1493520D01*
X+4889500Y+1508760D01*
X+4908550Y+1508760D01*
X+4914900Y+1501140D01*
X+4940300Y+1493520D02*
X+4953000Y+1508760D01*
X+4953000Y+1463040D01*
X+3683000Y+828040D02*
X+3683000Y+858520D01*
X+3695700Y+873760D01*
X+3708400Y+873760D01*
X+3721100Y+858520D01*
X+3721100Y+828040D01*
X+3683000Y+843280D02*
X+3721100Y+843280D01*
X+3771900Y+835660D02*
X+3765550Y+828040D01*
X+3746500Y+828040D01*
X+3733800Y+843280D01*
X+3733800Y+858520D01*
X+3746500Y+873760D01*
X+3765550Y+873760D01*
X+3771900Y+866140D01*
X+3790950Y+866140D02*
X+3797300Y+873760D01*
X+3816350Y+873760D01*
X+3822700Y+866140D01*
X+3822700Y+858520D01*
X+3816350Y+850900D01*
X+3797300Y+850900D01*
X+3790950Y+843280D01*
X+3790950Y+828040D01*
X+3822700Y+828040D01*
X+4699000Y+850900D02*
X+4737100Y+850900D01*
X+4718050Y+866140D02*
X+4718050Y+835660D01*
M02*
