G04 PROTEUS GERBER X2 FILE*
%TF.GenerationSoftware,Labcenter,Proteus,8.15-SP1-Build34318*%
%TF.CreationDate,2024-05-03T00:28:03+00:00*%
%TF.FileFunction,AssemblyDrawing,Top*%
%TF.FilePolarity,Positive*%
%TF.Part,Single*%
%TF.SameCoordinates,{7acd5411-dfaa-41ed-91d4-80792116efa7}*%
%FSLAX45Y45*%
%MOMM*%
G01*
%TA.AperFunction,Profile*%
%ADD19C,0.101600*%
%TA.AperFunction,Material*%
%ADD70C,0.101600*%
%ADD28C,1.219200*%
%ADD29C,0.177940*%
%ADD72C,0.812800*%
%ADD73C,0.110590*%
%ADD30C,0.508000*%
%ADD31C,0.096720*%
%ADD32C,0.084660*%
%ADD33C,0.711200*%
%ADD34C,0.117340*%
%ADD35C,0.103490*%
%ADD36C,0.143470*%
%TD.AperFunction*%
D19*
X+0Y+0D02*
X+5000000Y+0D01*
X+5000000Y+5000000D01*
X+0Y+5000000D01*
X+0Y+0D01*
D70*
X+3740920Y+3736920D02*
X+4767080Y+3736920D01*
X+4767080Y+4763080D01*
X+3740920Y+4763080D01*
X+3740920Y+3736920D01*
D28*
X+4000000Y+4250000D02*
X+4000000Y+4250000D01*
D29*
X+4467403Y+3849625D02*
X+4396225Y+3849625D01*
X+4360636Y+3889662D01*
X+4360636Y+3929700D01*
X+4396225Y+3969737D01*
X+4467403Y+3969737D01*
X+4431814Y+3849625D02*
X+4431814Y+3969737D01*
X+4449609Y+4129887D02*
X+4467403Y+4109868D01*
X+4467403Y+4049812D01*
X+4431814Y+4009775D01*
X+4396225Y+4009775D01*
X+4360636Y+4049812D01*
X+4360636Y+4109868D01*
X+4378431Y+4129887D01*
X+4360636Y+4350093D02*
X+4360636Y+4430168D01*
X+4360636Y+4390131D02*
X+4467403Y+4390131D01*
X+4467403Y+4350093D02*
X+4467403Y+4430168D01*
X+4467403Y+4490225D02*
X+4360636Y+4490225D01*
X+4467403Y+4610337D01*
X+4360636Y+4610337D01*
D70*
X+240920Y+3736920D02*
X+1267080Y+3736920D01*
X+1267080Y+4763080D01*
X+240920Y+4763080D01*
X+240920Y+3736920D01*
D28*
X+500000Y+4250000D02*
X+500000Y+4250000D01*
D29*
X+949609Y+3969737D02*
X+967403Y+3949718D01*
X+967403Y+3889662D01*
X+931814Y+3849625D01*
X+896225Y+3849625D01*
X+860636Y+3889662D01*
X+860636Y+3949718D01*
X+878431Y+3969737D01*
X+967403Y+4009775D02*
X+896225Y+4009775D01*
X+860636Y+4049812D01*
X+860636Y+4089850D01*
X+896225Y+4129887D01*
X+967403Y+4129887D01*
X+931814Y+4009775D02*
X+931814Y+4129887D01*
X+967403Y+4169925D02*
X+860636Y+4169925D01*
X+860636Y+4270018D01*
X+878431Y+4290037D01*
X+896225Y+4290037D01*
X+914020Y+4270018D01*
X+914020Y+4169925D01*
X+914020Y+4270018D02*
X+931814Y+4290037D01*
X+967403Y+4290037D01*
X+931814Y+4410150D02*
X+931814Y+4450187D01*
X+967403Y+4450187D01*
X+967403Y+4370112D01*
X+931814Y+4330075D01*
X+896225Y+4330075D01*
X+860636Y+4370112D01*
X+860636Y+4430168D01*
X+878431Y+4450187D01*
X+967403Y+4490225D02*
X+896225Y+4490225D01*
X+860636Y+4530262D01*
X+860636Y+4570300D01*
X+896225Y+4610337D01*
X+967403Y+4610337D01*
X+931814Y+4490225D02*
X+931814Y+4610337D01*
D70*
X+732920Y+236920D02*
X+1759080Y+236920D01*
X+1759080Y+1263080D01*
X+732920Y+1263080D01*
X+732920Y+236920D01*
D28*
X+1500000Y+750000D02*
X+1500000Y+750000D01*
D29*
X+1139363Y+349625D02*
X+1032596Y+349625D01*
X+1032596Y+429700D01*
X+1068185Y+469737D01*
X+1103774Y+469737D01*
X+1139363Y+429700D01*
X+1139363Y+349625D01*
X+1121569Y+629887D02*
X+1139363Y+609868D01*
X+1139363Y+549812D01*
X+1103774Y+509775D01*
X+1068185Y+509775D01*
X+1032596Y+549812D01*
X+1032596Y+609868D01*
X+1050391Y+629887D01*
X+1032596Y+850093D02*
X+1032596Y+930168D01*
X+1032596Y+890131D02*
X+1139363Y+890131D01*
X+1139363Y+850093D02*
X+1139363Y+930168D01*
X+1139363Y+990225D02*
X+1032596Y+990225D01*
X+1139363Y+1110337D01*
X+1032596Y+1110337D01*
D70*
X+2113920Y+3990920D02*
X+2886080Y+3990920D01*
X+2886080Y+4382080D01*
X+2113920Y+4382080D01*
X+2113920Y+3990920D01*
D72*
X+2246000Y+4123000D02*
X+2246000Y+4123000D01*
D73*
X+2337513Y+4219680D02*
X+2412167Y+4219680D01*
X+2374840Y+4219680D02*
X+2374840Y+4153320D01*
X+2437052Y+4153320D02*
X+2437052Y+4219680D01*
X+2499263Y+4219680D01*
X+2511706Y+4208620D01*
X+2511706Y+4197560D01*
X+2499263Y+4186500D01*
X+2437052Y+4186500D01*
X+2499263Y+4186500D02*
X+2511706Y+4175440D01*
X+2511706Y+4153320D01*
X+2549033Y+4219680D02*
X+2598802Y+4219680D01*
X+2573918Y+4219680D02*
X+2573918Y+4153320D01*
X+2549033Y+4153320D02*
X+2598802Y+4153320D01*
X+2636130Y+4153320D02*
X+2636130Y+4197560D01*
X+2661014Y+4219680D01*
X+2685899Y+4219680D01*
X+2710784Y+4197560D01*
X+2710784Y+4153320D01*
X+2636130Y+4175440D02*
X+2710784Y+4175440D01*
X+2810323Y+4164380D02*
X+2797880Y+4153320D01*
X+2760553Y+4153320D01*
X+2735669Y+4175440D01*
X+2735669Y+4197560D01*
X+2760553Y+4219680D01*
X+2797880Y+4219680D01*
X+2810323Y+4208620D01*
D70*
X+867920Y+2186500D02*
X+1640080Y+2186500D01*
X+1640080Y+3075500D01*
X+867920Y+3075500D01*
X+867920Y+2186500D01*
D30*
X+1000000Y+2250000D02*
X+1000000Y+2250000D01*
D31*
X+1283016Y+2370782D02*
X+1224984Y+2370782D01*
X+1254000Y+2403425D01*
X+1224984Y+2436068D01*
X+1283016Y+2436068D01*
X+1244328Y+2457830D02*
X+1224984Y+2479592D01*
X+1224984Y+2501354D01*
X+1244328Y+2523116D01*
X+1263672Y+2523116D01*
X+1283016Y+2501354D01*
X+1283016Y+2479592D01*
X+1263672Y+2457830D01*
X+1244328Y+2457830D01*
X+1273344Y+2610164D02*
X+1283016Y+2599283D01*
X+1283016Y+2566640D01*
X+1263672Y+2544878D01*
X+1244328Y+2544878D01*
X+1224984Y+2566640D01*
X+1224984Y+2599283D01*
X+1234656Y+2610164D01*
X+1234656Y+2642807D02*
X+1224984Y+2653688D01*
X+1224984Y+2686331D01*
X+1234656Y+2697212D01*
X+1244328Y+2697212D01*
X+1254000Y+2686331D01*
X+1263672Y+2697212D01*
X+1273344Y+2697212D01*
X+1283016Y+2686331D01*
X+1283016Y+2653688D01*
X+1273344Y+2642807D01*
X+1254000Y+2664569D02*
X+1254000Y+2686331D01*
X+1273344Y+2718974D02*
X+1234656Y+2718974D01*
X+1224984Y+2729855D01*
X+1224984Y+2773379D01*
X+1234656Y+2784260D01*
X+1273344Y+2784260D01*
X+1283016Y+2773379D01*
X+1283016Y+2729855D01*
X+1273344Y+2718974D01*
X+1283016Y+2718974D02*
X+1224984Y+2784260D01*
X+1234656Y+2816903D02*
X+1224984Y+2827784D01*
X+1224984Y+2860427D01*
X+1234656Y+2871308D01*
X+1244328Y+2871308D01*
X+1254000Y+2860427D01*
X+1254000Y+2827784D01*
X+1263672Y+2816903D01*
X+1283016Y+2816903D01*
X+1283016Y+2871308D01*
X+1244328Y+2914832D02*
X+1224984Y+2936594D01*
X+1283016Y+2936594D01*
D70*
X+117920Y+1478920D02*
X+382080Y+1478920D01*
X+382080Y+1743080D01*
X+117920Y+1743080D01*
X+117920Y+1478920D01*
D32*
X+173801Y+1585600D02*
X+173801Y+1636399D01*
X+221425Y+1636399D01*
X+230950Y+1627933D01*
X+230950Y+1619466D01*
X+221425Y+1611000D01*
X+173801Y+1611000D01*
X+250000Y+1585600D02*
X+250000Y+1636399D01*
X+288099Y+1636399D01*
X+307149Y+1619466D01*
X+307149Y+1602533D01*
X+288099Y+1585600D01*
X+250000Y+1585600D01*
D70*
X+1161100Y+3161100D02*
X+2354900Y+3161100D01*
X+2354900Y+3338900D01*
X+1161100Y+3338900D01*
X+1161100Y+3161100D01*
D33*
X+1250000Y+3250000D02*
X+1250000Y+3250000D01*
D34*
X+1714618Y+3214796D02*
X+1714618Y+3285204D01*
X+1780625Y+3285204D01*
X+1793827Y+3273469D01*
X+1793827Y+3261735D01*
X+1780625Y+3250000D01*
X+1714618Y+3250000D01*
X+1780625Y+3250000D02*
X+1793827Y+3238265D01*
X+1793827Y+3214796D01*
X+1899439Y+3285204D02*
X+1833431Y+3285204D01*
X+1833431Y+3261735D01*
X+1886237Y+3261735D01*
X+1899439Y+3250000D01*
X+1899439Y+3226531D01*
X+1886237Y+3214796D01*
X+1846633Y+3214796D01*
X+1833431Y+3226531D01*
D70*
X+411100Y+2276100D02*
X+588900Y+2276100D01*
X+588900Y+3469900D01*
X+411100Y+3469900D01*
X+411100Y+2276100D01*
D33*
X+500000Y+3381000D02*
X+500000Y+3381000D01*
D34*
X+535204Y+2705158D02*
X+464796Y+2705158D01*
X+464796Y+2771165D01*
X+476531Y+2784367D01*
X+488265Y+2784367D01*
X+500000Y+2771165D01*
X+500000Y+2705158D01*
X+500000Y+2771165D02*
X+511735Y+2784367D01*
X+535204Y+2784367D01*
X+476531Y+2889979D02*
X+464796Y+2876777D01*
X+464796Y+2837173D01*
X+476531Y+2823971D01*
X+523469Y+2823971D01*
X+535204Y+2837173D01*
X+535204Y+2876777D01*
X+523469Y+2889979D01*
X+511735Y+2889979D01*
X+500000Y+2876777D01*
X+500000Y+2823971D01*
D70*
X+3911100Y+2272100D02*
X+4088900Y+2272100D01*
X+4088900Y+3465900D01*
X+3911100Y+3465900D01*
X+3911100Y+2272100D01*
D33*
X+4000000Y+3377000D02*
X+4000000Y+3377000D01*
D34*
X+4035204Y+2701158D02*
X+3964796Y+2701158D01*
X+3964796Y+2767165D01*
X+3976531Y+2780367D01*
X+3988265Y+2780367D01*
X+4000000Y+2767165D01*
X+4000000Y+2701158D01*
X+4000000Y+2767165D02*
X+4011735Y+2780367D01*
X+4035204Y+2780367D01*
X+3988265Y+2833173D02*
X+3964796Y+2859576D01*
X+4035204Y+2859576D01*
D70*
X+4538100Y+2272100D02*
X+4715900Y+2272100D01*
X+4715900Y+3465900D01*
X+4538100Y+3465900D01*
X+4538100Y+2272100D01*
D33*
X+4627000Y+3377000D02*
X+4627000Y+3377000D01*
D34*
X+4662204Y+2701158D02*
X+4591796Y+2701158D01*
X+4591796Y+2767165D01*
X+4603531Y+2780367D01*
X+4615265Y+2780367D01*
X+4627000Y+2767165D01*
X+4627000Y+2701158D01*
X+4627000Y+2767165D02*
X+4638735Y+2780367D01*
X+4662204Y+2780367D01*
X+4603531Y+2819971D02*
X+4591796Y+2833173D01*
X+4591796Y+2872777D01*
X+4603531Y+2885979D01*
X+4615265Y+2885979D01*
X+4627000Y+2872777D01*
X+4627000Y+2833173D01*
X+4638735Y+2819971D01*
X+4662204Y+2819971D01*
X+4662204Y+2885979D01*
D70*
X+3699900Y+707900D02*
X+4792100Y+707900D01*
X+4792100Y+1800100D01*
X+3699900Y+1800100D01*
X+3699900Y+707900D01*
D35*
X+3826834Y+1222950D02*
X+3826834Y+1285049D01*
X+3885051Y+1285049D01*
X+3896695Y+1274699D01*
X+3896695Y+1264349D01*
X+3885051Y+1254000D01*
X+3826834Y+1254000D01*
X+3919982Y+1285049D02*
X+3989843Y+1285049D01*
X+3954912Y+1285049D02*
X+3954912Y+1222950D01*
X+4082991Y+1222950D02*
X+4013130Y+1222950D01*
X+4013130Y+1285049D01*
X+4082991Y+1285049D01*
X+4013130Y+1254000D02*
X+4059704Y+1254000D01*
X+4106278Y+1222950D02*
X+4106278Y+1285049D01*
X+4152852Y+1285049D01*
X+4176139Y+1264349D01*
X+4176139Y+1243650D01*
X+4152852Y+1222950D01*
X+4106278Y+1222950D01*
X+4211069Y+1285049D02*
X+4257643Y+1285049D01*
X+4234356Y+1285049D02*
X+4234356Y+1222950D01*
X+4211069Y+1222950D02*
X+4257643Y+1222950D01*
X+4292574Y+1264349D02*
X+4315861Y+1285049D01*
X+4339148Y+1285049D01*
X+4362435Y+1264349D01*
X+4362435Y+1243650D01*
X+4339148Y+1222950D01*
X+4315861Y+1222950D01*
X+4292574Y+1243650D01*
X+4292574Y+1264349D01*
X+4385722Y+1222950D02*
X+4385722Y+1285049D01*
X+4432296Y+1285049D01*
X+4455583Y+1264349D01*
X+4455583Y+1243650D01*
X+4432296Y+1222950D01*
X+4385722Y+1222950D01*
X+4478870Y+1264349D02*
X+4502157Y+1285049D01*
X+4525444Y+1285049D01*
X+4548731Y+1264349D01*
X+4548731Y+1243650D01*
X+4525444Y+1222950D01*
X+4502157Y+1222950D01*
X+4478870Y+1243650D01*
X+4478870Y+1264349D01*
X+4572018Y+1233300D02*
X+4583661Y+1222950D01*
X+4630235Y+1222950D01*
X+4641879Y+1233300D01*
X+4641879Y+1243650D01*
X+4630235Y+1254000D01*
X+4583661Y+1254000D01*
X+4572018Y+1264349D01*
X+4572018Y+1274699D01*
X+4583661Y+1285049D01*
X+4630235Y+1285049D01*
X+4641879Y+1274699D01*
D70*
X+2424500Y+2117920D02*
X+3313500Y+2117920D01*
X+3313500Y+2636080D01*
X+2424500Y+2636080D01*
X+2424500Y+2117920D01*
D30*
X+3250000Y+2250000D02*
X+3250000Y+2250000D01*
D36*
X+2501735Y+2333957D02*
X+2501735Y+2420042D01*
X+2582438Y+2420042D01*
X+2598579Y+2405694D01*
X+2598579Y+2391347D01*
X+2582438Y+2377000D01*
X+2501735Y+2377000D01*
X+2727705Y+2348305D02*
X+2711564Y+2333957D01*
X+2663142Y+2333957D01*
X+2630861Y+2362652D01*
X+2630861Y+2391347D01*
X+2663142Y+2420042D01*
X+2711564Y+2420042D01*
X+2727705Y+2405694D01*
X+2792268Y+2377000D02*
X+2776127Y+2391347D01*
X+2776127Y+2405694D01*
X+2792268Y+2420042D01*
X+2840690Y+2420042D01*
X+2856831Y+2405694D01*
X+2856831Y+2391347D01*
X+2840690Y+2377000D01*
X+2792268Y+2377000D01*
X+2776127Y+2362652D01*
X+2776127Y+2348305D01*
X+2792268Y+2333957D01*
X+2840690Y+2333957D01*
X+2856831Y+2348305D01*
X+2856831Y+2362652D01*
X+2840690Y+2377000D01*
X+2921394Y+2391347D02*
X+2953676Y+2420042D01*
X+2953676Y+2333957D01*
X+3034379Y+2420042D02*
X+3115083Y+2420042D01*
X+3115083Y+2405694D01*
X+3034379Y+2333957D01*
D70*
X+3161100Y+661100D02*
X+3338900Y+661100D01*
X+3338900Y+1854900D01*
X+3161100Y+1854900D01*
X+3161100Y+661100D01*
D33*
X+3250000Y+750000D02*
X+3250000Y+750000D01*
D34*
X+3285204Y+1214618D02*
X+3214796Y+1214618D01*
X+3214796Y+1280625D01*
X+3226531Y+1293827D01*
X+3238265Y+1293827D01*
X+3250000Y+1280625D01*
X+3250000Y+1214618D01*
X+3250000Y+1280625D02*
X+3261735Y+1293827D01*
X+3285204Y+1293827D01*
X+3226531Y+1333431D02*
X+3214796Y+1346633D01*
X+3214796Y+1386237D01*
X+3226531Y+1399439D01*
X+3238265Y+1399439D01*
X+3250000Y+1386237D01*
X+3261735Y+1399439D01*
X+3273469Y+1399439D01*
X+3285204Y+1386237D01*
X+3285204Y+1346633D01*
X+3273469Y+1333431D01*
X+3250000Y+1359834D02*
X+3250000Y+1386237D01*
D70*
X+1411100Y+1411100D02*
X+2604900Y+1411100D01*
X+2604900Y+1588900D01*
X+1411100Y+1588900D01*
X+1411100Y+1411100D01*
D33*
X+1500000Y+1500000D02*
X+1500000Y+1500000D01*
D34*
X+1964618Y+1464796D02*
X+1964618Y+1535204D01*
X+2030625Y+1535204D01*
X+2043827Y+1523469D01*
X+2043827Y+1511735D01*
X+2030625Y+1500000D01*
X+1964618Y+1500000D01*
X+2030625Y+1500000D02*
X+2043827Y+1488265D01*
X+2043827Y+1464796D01*
X+2149439Y+1488265D02*
X+2070230Y+1488265D01*
X+2123036Y+1535204D01*
X+2123036Y+1464796D01*
D70*
X+121920Y+883920D02*
X+386080Y+883920D01*
X+386080Y+1148080D01*
X+121920Y+1148080D01*
X+121920Y+883920D01*
D32*
X+139702Y+990600D02*
X+139702Y+1041399D01*
X+187326Y+1041399D01*
X+196851Y+1032933D01*
X+196851Y+1024466D01*
X+187326Y+1016000D01*
X+139702Y+1016000D01*
X+215901Y+1041399D02*
X+273050Y+1041399D01*
X+215901Y+990600D01*
X+273050Y+990600D01*
X+349249Y+999066D02*
X+339724Y+990600D01*
X+311149Y+990600D01*
X+292100Y+1007533D01*
X+292100Y+1024466D01*
X+311149Y+1041399D01*
X+339724Y+1041399D01*
X+349249Y+1032933D01*
M02*
